# xmcd
#
# Track frame offsets:
#	150
#	16527
#	35457
#	51220
#	66172
#	78725
#	92290
#	103845
#	117327
#
# Disc length: 1739 seconds
#
# Revision: 9
# Processed by: cddbd v1.5.2PL0 Copyright (c) Steve Scherf et al.
# Submitted via: EZCDAudioConverter 6.0.5.1
#
DISCID=6906c909
DTITLE=Waylon Jennings - Greatest Hits
DYEAR=1988
DGENRE=Country
TTITLE0=Lonesome, On'ry And Mean
TTITLE1=I've Always Been Crazy
TTITLE2=Honky Tonk Heroes
TTITLE3=Luckenbach, Texas (Back To The Basics Of Love)
TTITLE4=I'm A Ramblin' Man
TTITLE5=Amanda
TTITLE6=Mammas Don't Let Your Babies Grow Up To Be Cowboys
TTITLE7=A Good Hearted Woman
TTITLE8=Are You Sure Hank Done It This Way
EXTD=
EXTT0=
EXTT1=
EXTT2=
EXTT3=
EXTT4=
EXTT5=
EXTT6=
EXTT7=
EXTT8=
PLAYORDER=
